<?xml version="1.0" encoding="utf-8"?>
<svg version="1.1" xmlns:xlink="http://www.w3.org/1999/xlink" width="17px" height="17px" xmlns="http://www.w3.org/2000/svg">
  <g transform="matrix(1 0 0 1 -995 -312 )">
    <path d="M 9.63997395833333 11.6100260416667  C 9.70638020833333 11.6764322916667  9.73958333333333 11.7612847222222  9.73958333333333 11.8645833333333  L 9.73958333333333 13.6354166666667  C 9.73958333333333 13.7387152777778  9.70638020833333 13.8235677083333  9.63997395833333 13.8899739583333  C 9.57356770833333 13.9563802083333  9.48871527777778 13.9895833333333  9.38541666666667 13.9895833333333  L 7.61458333333333 13.9895833333333  C 7.51128472222222 13.9895833333333  7.42643229166667 13.9563802083333  7.36002604166667 13.8899739583333  C 7.29361979166667 13.8235677083333  7.26041666666667 13.7387152777778  7.26041666666667 13.6354166666667  L 7.26041666666667 11.8645833333333  C 7.26041666666667 11.7612847222222  7.29361979166667 11.6764322916667  7.36002604166667 11.6100260416667  C 7.42643229166667 11.5436197916667  7.51128472222222 11.5104166666667  7.61458333333333 11.5104166666667  L 9.38541666666667 11.5104166666667  C 9.48871527777778 11.5104166666667  9.57356770833333 11.5436197916667  9.63997395833333 11.6100260416667  Z M 11.3610026041667 4.0009765625  C 12.1689453125 4.66134982638889  12.5729166666667 5.45269097222222  12.5729166666667 6.375  C 12.5729166666667 6.74392361111111  12.517578125 7.07595486111111  12.4069010416667 7.37109375  C 12.2962239583333 7.66623263888889  12.1283637152778 7.92078993055556  11.9033203125 8.134765625  C 11.6782769097222 8.34874131944444  11.4864366319444 8.51106770833333  11.3277994791667 8.62174479166667  C 11.1691623263889 8.732421875  10.9496527777778 8.865234375  10.6692708333333 9.02018229166667  C 10.4331597222222 9.15299479166667  10.2616102430556 9.25629340277778  10.1546223958333 9.330078125  C 10.0476345486111 9.40386284722222  9.95171440972222 9.49240451388889  9.86686197916667 9.595703125  C 9.78200954861111 9.69900173611111  9.73958333333333 9.80598958333333  9.73958333333333 9.91666666666667  L 9.73958333333333 10.2708333333333  C 9.73958333333333 10.3741319444444  9.70638020833333 10.458984375  9.63997395833333 10.525390625  C 9.57356770833333 10.591796875  9.48871527777778 10.625  9.38541666666667 10.625  L 7.61458333333333 10.625  C 7.51128472222222 10.625  7.42643229166667 10.591796875  7.36002604166667 10.525390625  C 7.29361979166667 10.458984375  7.26041666666667 10.3741319444444  7.26041666666667 10.2708333333333  L 7.26041666666667 9.51822916666667  C 7.26041666666667 9.25998263888889  7.29915364583333 9.02202690972222  7.37662760416667 8.80436197916667  C 7.4541015625 8.58669704861111  7.54264322916667 8.41145833333333  7.64225260416667 8.27864583333333  C 7.74186197916667 8.14583333333333  7.8857421875 8.01486545138889  8.07389322916667 7.8857421875  C 8.26204427083333 7.75661892361111  8.41330295138889 7.66254340277778  8.52766927083333 7.603515625  C 8.64203559027778 7.54448784722222  8.80620659722222 7.46701388888889  9.02018229166667 7.37109375  C 9.41124131944444 7.18663194444444  9.68793402777778 7.02799479166667  9.85026041666667 6.89518229166667  C 10.0125868055556 6.76236979166667  10.09375 6.58159722222222  10.09375 6.35286458333333  C 10.09375 6.04296875  9.93326822916667 5.77918836805555  9.6123046875 5.5615234375  C 9.29134114583333 5.34385850694444  8.93901909722222 5.23502604166667  8.55533854166667 5.23502604166667  C 8.14214409722222 5.23502604166667  7.79166666666667 5.33463541666667  7.50390625 5.53385416666667  C 7.28993055555556 5.68142361111111  6.99479166666667 5.98763020833333  6.61848958333333 6.45247395833333  C 6.55208333333333 6.541015625  6.45985243055556 6.58528645833333  6.341796875 6.58528645833333  C 6.26063368055556 6.58528645833333  6.19053819444444 6.56315104166667  6.13151041666667 6.51888020833333  L 4.93619791666667 5.611328125  C 4.86241319444444 5.55967881944444  4.81814236111111 5.48589409722222  4.80338541666667 5.38997395833333  C 4.78862847222222 5.29405381944444  4.80707465277778 5.20920138888889  4.85872395833333 5.13541666666667  C 5.75889756944444 3.71875  7.04644097222222 3.01041666666667  8.72135416666667 3.01041666666667  C 9.67317708333333 3.01041666666667  10.5530598958333 3.34060329861111  11.3610026041667 4.0009765625  Z M 11.2503255208333 1.98111979166667  C 10.3759765625 1.60481770833333  9.45920138888889 1.41666666666667  8.5 1.41666666666667  C 7.54079861111111 1.41666666666667  6.6240234375 1.60481770833333  5.74967447916667 1.98111979166667  C 4.87532552083333 2.357421875  4.12272135416667 2.86100260416667  3.49186197916667 3.49186197916667  C 2.86100260416667 4.12272135416667  2.357421875 4.87532552083333  1.98111979166667 5.74967447916667  C 1.60481770833333 6.6240234375  1.41666666666667 7.54079861111111  1.41666666666667 8.5  C 1.41666666666667 9.45920138888889  1.60481770833333 10.3759765625  1.98111979166667 11.2503255208333  C 2.357421875 12.1246744791667  2.86100260416667 12.8772786458333  3.49186197916667 13.5081380208333  C 4.12272135416667 14.1389973958333  4.87532552083333 14.642578125  5.74967447916667 15.0188802083333  C 6.6240234375 15.3951822916667  7.54079861111111 15.5833333333333  8.5 15.5833333333333  C 9.45920138888889 15.5833333333333  10.3759765625 15.3951822916667  11.2503255208333 15.0188802083333  C 12.1246744791667 14.642578125  12.8772786458333 14.1389973958333  13.5081380208333 13.5081380208333  C 14.1389973958333 12.8772786458333  14.642578125 12.1246744791667  15.0188802083333 11.2503255208333  C 15.3951822916667 10.3759765625  15.5833333333333 9.45920138888889  15.5833333333333 8.5  C 15.5833333333333 7.54079861111111  15.3951822916667 6.6240234375  15.0188802083333 5.74967447916667  C 14.642578125 4.87532552083333  14.1389973958333 4.12272135416667  13.5081380208333 3.49186197916667  C 12.8772786458333 2.86100260416667  12.1246744791667 2.357421875  11.2503255208333 1.98111979166667  Z M 15.8600260416667 4.2333984375  C 16.6200086805556 5.53569878472222  17 6.95789930555555  17 8.5  C 17 10.0421006944444  16.6200086805556 11.4643012152778  15.8600260416667 12.7666015625  C 15.1000434027778 14.0689019097222  14.0689019097222 15.1000434027778  12.7666015625 15.8600260416667  C 11.4643012152778 16.6200086805556  10.0421006944444 17  8.5 17  C 6.95789930555556 17  5.53569878472222 16.6200086805556  4.2333984375 15.8600260416667  C 2.93109809027778 15.1000434027778  1.89995659722222 14.0689019097222  1.13997395833333 12.7666015625  C 0.379991319444444 11.4643012152778  0 10.0421006944444  0 8.5  C 0 6.95789930555555  0.379991319444444 5.53569878472222  1.13997395833333 4.2333984375  C 1.89995659722222 2.93109809027778  2.93109809027778 1.89995659722222  4.2333984375 1.13997395833333  C 5.53569878472222 0.379991319444443  6.95789930555556 0  8.5 0  C 10.0421006944444 0  11.4643012152778 0.379991319444443  12.7666015625 1.13997395833333  C 14.0689019097222 1.89995659722222  15.1000434027778 2.93109809027778  15.8600260416667 4.2333984375  Z " fill-rule="nonzero" fill="#555555" stroke="none" transform="matrix(1 0 0 1 995 312 )" />
  </g>
</svg>