<?xml version="1.0" standalone="no"?><!DOCTYPE svg PUBLIC "-//W3C//DTD SVG 1.1//EN" "http://www.w3.org/Graphics/SVG/1.1/DTD/svg11.dtd"><svg t="1592379560612" class="icon" viewBox="0 0 1024 1024" version="1.1" xmlns="http://www.w3.org/2000/svg" p-id="3782" xmlns:xlink="http://www.w3.org/1999/xlink" width="32" height="32"><defs><style type="text/css"></style></defs><path d="M902.624 806.016H121.376c-13.728 0-24.96-11.232-24.96-24.96V303.904C96.416 242.336 146.752 192 208.32 192h607.36c61.568 0 111.904 50.336 111.904 111.904v477.152c0 13.728-11.232 24.96-24.96 24.96z m0 86.112H121.376c-13.728 0-24.96-11.232-24.96-24.96 0-13.728 11.232-24.96 24.96-24.96h780.832c13.728 0 24.96 11.232 24.96 24.96 0.416 13.728-10.816 24.96-24.544 24.96z m-617.76-292.032c0 0.832-0.416 1.664-1.248 2.912v9.568c0.832 14.56 9.152 21.632 24.544 21.632 12.48 0 21.216-5.408 25.792-16.224l10.816-32.448h95.68l9.568 32.448c3.744 10.816 12.064 16.224 25.792 16.224 15.392 0 23.712-6.656 24.544-20.384-1.248-2.912-2.08-7.488-2.912-13.728l-67.808-188.448c-7.904-17.888-20.8-27.456-37.856-28.288-17.888 0.832-30.368 10.4-36.608 28.288l-70.304 188.448zM392.192 437.44l32.448 100.256h-64.896l32.448-100.256z m141.856 170.976c0 16.224 9.152 24.544 27.04 25.376h59.488c75.296-3.744 114.816-43.68 119.392-120.64-3.328-80.288-44.096-122.304-121.888-126.048h-58.24c-16.224 1.664-24.96 10.4-25.792 25.792v195.52z m51.584-173.888h31.2c44.928 0.832 68.224 26.624 69.056 77.376-2.496 48.672-24.128 73.632-64.896 74.464h-35.36v-151.84z" p-id="3783" fill="#BFCFD9"></path></svg>