<?xml version="1.0" standalone="no"?><!DOCTYPE svg PUBLIC "-//W3C//DTD SVG 1.1//EN" "http://www.w3.org/Graphics/SVG/1.1/DTD/svg11.dtd"><svg t="1593339132128" class="icon" viewBox="0 0 1024 1024" version="1.1" xmlns="http://www.w3.org/2000/svg" p-id="2136" xmlns:xlink="http://www.w3.org/1999/xlink" width="32" height="32"><defs><style type="text/css"></style></defs><path d="M565.235 220.165c-9.795-7.463-21.71-12.815-21.71-12.815H99.045s-7.148 3.603-17.315 12.02c-9.66 7.998-13.979 19.858-13.979 19.858v348.849h507.863V240.5s-3.707-15.25-10.379-20.335zM393.33 378.71s-97.083 132.879-107.388 145.896c-18.998 24.803-17.761 22.156-8.677-7.593 1.987-8.036 26.715-94.371 26.715-94.371s-41.36 0.542-49.495 0c-6.658-0.444-8.376-3.58-5.966-7.593 1.555-2.197 112.467-150.777 112.467-150.777 10.45-13.593 9.167-11.884 5.67 1.479-0.366 1.277-23.393 101.57-23.393 101.57s40.305-0.542 50.067 0c6.508 3.254 0 11.39 0 11.39zM912.389 369.702c-45.751-53.376-83.029-67.143-83.029-67.143H607.385V751.38h34.281a143.057 143.057 0 0 1-2.509-26.688c0-78.61 63.725-142.335 142.335-142.335s142.335 63.726 142.335 142.335c0 9.123-0.87 18.042-2.51 26.688h34.281v-283.4s-11.093-60.807-43.209-98.278z m0 92.348h-210.96V327.34H829.36s39.184 37.702 57.294 64.39c27.807 40.98 25.735 70.32 25.735 70.32zM377.785 713.678c0 10.375-1.284 20.448-3.69 30.077h201.519V620.06H334.936c26.242 22.683 42.85 56.211 42.85 93.62zM173.242 620.06H67.752v123.695h66.332a123.939 123.939 0 0 1-3.69-30.077c-0.001-37.408 16.606-70.936 42.848-93.619zM253.997 619.213c-54.328 0-98.37 44.042-98.37 98.37 0 54.329 44.042 98.37 98.37 98.37s98.37-44.041 98.37-98.37c0-54.328-44.042-98.37-98.37-98.37z m0 166.043c-37.315 0-67.671-30.358-67.671-67.672 0-37.315 30.357-67.671 67.67-67.671 37.315 0 67.672 30.357 67.672 67.671 0 37.314-30.357 67.672-67.671 67.672z" p-id="2137" fill="#BFCFD9"></path><path d="M781.492 617.942c-54.329 0-98.37 44.042-98.37 98.37 0 54.329 44.041 98.37 98.37 98.37s98.37-44.041 98.37-98.37c0-54.328-44.042-98.37-98.37-98.37z m0 166.043c-37.314 0-67.671-30.358-67.671-67.672 0-37.314 30.357-67.67 67.67-67.67s67.672 30.356 67.672 67.67-30.357 67.672-67.671 67.672z" p-id="2138" fill="#BFCFD9"></path></svg>