<?xml version="1.0" standalone="no"?><!DOCTYPE svg PUBLIC "-//W3C//DTD SVG 1.1//EN" "http://www.w3.org/Graphics/SVG/1.1/DTD/svg11.dtd"><svg t="1587611679906" class="icon" viewBox="0 0 1024 1024" version="1.1" xmlns="http://www.w3.org/2000/svg" p-id="1424" xmlns:xlink="http://www.w3.org/1999/xlink" width="200" height="200"><defs><style type="text/css"></style></defs><path d="M742.5 283.8H277c-13.6 0-21.2 7.5-21.2 21.1 0 16.5 10.9 27.5 21.2 27.5h465.5c16.7 0 21.1-18 21.1-27.5 0.1-10.2-10.8-21.1-21.1-21.1zM819 596.9c-16.3 0-26.9 10.6-26.9 26.9v215.4H227.4V623.9c0-16.3-10.6-26.9-26.9-26.9-9.9 0-20.5 10.3-20.5 26.9v210.4c0 36 30.5 52.4 58.8 52.4h548.4c34.1 0 58.8-22 58.8-52.4V623.9c-0.1-16.4-10.6-27-27-27z" p-id="1425"></path><path d="M953 375.1l-82.9-184.9c-12.8-25.5-38.3-51-76.5-51H232.3c-38.3 0-63.8 19.1-76.5 51L72.9 375.1c-6.4 12.8-6.4 31.9-6.4 44.6 0 51 31.9 95.7 76.5 121.2h6.4c19.1 6.4 44.6 12.8 63.8 12.8 44.6 0 114.8-25.5 140.3-57.4l6.4-6.4 6.4 6.4c57.4 44.6 102 57.4 146.7 57.4 44.6 0 95.7-12.8 140.3-57.4l6.4-6.4 6.4 6.4c25.5 31.9 102 57.4 146.7 57.4 25.5 0 51-6.4 70.1-12.8 44.6-25.5 76.5-70.1 76.5-121.2-0.1-12.7-0.1-31.8-6.4-44.6z m-89.3 121.2c-12.8 6.4-31.9 12.8-51 12.8-38.3 0-102-25.5-121.2-57.4 0 0 0-6.4-6.4-6.4-6.4-6.4-12.8-12.8-19.1-12.8-6.4 0-19.1 6.4-19.1 12.8-12.8 0-12.8 6.4-12.8 6.4-19.1 31.9-82.9 57.4-121.2 57.4s-102-25.5-121.2-57.4l-6.4-6.4c-6.4-12.8-12.8-12.8-19.1-12.8-6.4 0-19.1 6.4-19.1 6.4l-12.8 12.8c-19.1 31.9-76.5 51-114.8 51-19.1 0-38.3-6.4-51-6.4-31.9-19.1-44.6-44.6-44.6-82.9 0-12.8 0-19.1 6.4-31.9l76.5-165.8c6.4-12.8 6.4-19.1 25.5-19.1h554.8c6.4 0 19.1 0 25.5 19.1l82.9 165.8c6.4 12.8 6.4 19.1 6.4 31.9 0 44.6-6.3 63.8-38.2 82.9z" p-id="1426"></path></svg>