<?xml version="1.0" standalone="no"?><!DOCTYPE svg PUBLIC "-//W3C//DTD SVG 1.1//EN" "http://www.w3.org/Graphics/SVG/1.1/DTD/svg11.dtd"><svg t="1594794199497" class="icon" viewBox="0 0 1059 1024" version="1.1" xmlns="http://www.w3.org/2000/svg" p-id="6985" xmlns:xlink="http://www.w3.org/1999/xlink" width="206.8359375" height="200"><defs><style type="text/css"></style></defs><path d="M921.934507 1006.933333 488.91904 1006.933333C470.07744 1006.933333 454.785707 991.675733 454.785707 972.8 454.785707 953.924267 470.07744 938.666667 488.91904 938.666667L921.934507 938.666667C941.765973 938.666667 957.91104 922.5216 957.91104 902.690133L957.91104 722.944C957.91104 703.0784 941.765973 686.933333 921.934507 686.933333L104.236373 686.933333C84.404907 686.933333 68.25984 703.0784 68.25984 722.944L68.25984 902.690133C68.25984 922.5216 84.404907 938.666667 104.236373 938.666667L223.668907 938.666667C242.510507 938.666667 257.80224 953.924267 257.80224 972.8 257.80224 991.675733 242.510507 1006.933333 223.668907 1006.933333L104.236373 1006.933333C46.75584 1006.933333-0.006827 960.170667-0.006827 902.690133L-0.006827 722.944C-0.006827 665.429333 46.75584 618.666667 104.236373 618.666667L921.934507 618.666667C979.41504 618.666667 1026.177707 665.429333 1026.177707 722.944L1026.177707 902.690133C1026.177707 960.170667 979.41504 1006.933333 921.934507 1006.933333" p-id="6986"></path><path d="M788.066987 299.567787 788.476587 299.567787 805.270187 299.772587C822.575787 299.977387 837.014187 313.084587 838.823253 330.32192 841.724587 358.106453 864.79872 379.06432 892.44672 379.06432 922.44992 379.06432 946.855253 354.658987 946.855253 324.655787 946.855253 316.634453 946.855253 307.554987 943.44192 289.634987L885.961387 85.27872C883.674453 77.08672 870.055253 68.28032 852.032853 68.28032L172.438187 68.28032C154.484053 68.28032 140.864853 77.052587 138.509653 85.210453L80.653653 285.641387C80.175787 289.498453 80.51712 310.080853 80.61952 316.839253L80.72192 324.655787C80.72192 354.658987 105.127253 379.06432 135.130453 379.06432 164.519253 379.06432 188.822187 355.10272 189.36832 325.645653 189.709653 306.838187 203.567787 291.785387 223.97952 292.092587L258.454187 292.570453C276.81792 292.84352 291.700053 307.554987 292.109653 325.91872 292.826453 355.751253 316.617387 379.06432 346.313387 379.06432 375.156053 379.06432 398.87872 356.33152 400.346453 327.318187 401.23392 309.159253 416.218453 294.89152 434.41152 294.89152 452.604587 294.89152 468.51072 309.159253 469.398187 327.318187 470.831787 356.33152 494.554453 379.06432 523.39712 379.06432 551.420587 379.06432 575.040853 356.980053 577.191253 328.751787 578.556587 310.96832 593.370453 297.24672 611.222187 297.24672 629.07392 297.24672 645.25312 310.96832 646.618453 328.751787 648.768853 356.980053 672.423253 379.06432 700.44672 379.06432 728.19712 379.06432 751.23712 358.07232 754.10432 330.185387 755.913387 312.777387 770.59072 299.567787 788.066987 299.567787M892.44672 447.330987C853.671253 447.330987 818.92352 429.274453 796.463787 400.704853 774.004053 429.308587 739.25632 447.330987 700.44672 447.330987 665.903787 447.330987 634.330453 432.585387 611.904853 408.930987 589.513387 432.585387 557.90592 447.330987 523.39712 447.330987 488.649387 447.330987 457.178453 432.790187 434.855253 409.37472 412.532053 432.790187 381.06112 447.330987 346.313387 447.330987 300.950187 447.330987 261.66272 423.266987 240.500053 386.94912 219.030187 422.99392 179.64032 447.330987 135.130453 447.330987 67.51232 447.330987 12.455253 392.308053 12.455253 324.655787L12.386987 317.965653C11.943253 291.10272 12.21632 276.56192 15.08352 266.697387L72.905387 66.266453C84.169387 27.21792 125.129387 0.013653 172.438187 0.013653L852.032853 0.013653C899.648853 0.013653 940.642987 27.456853 951.668053 66.812587L1009.558187 272.534187C1009.79712 273.421653 1010.00192 274.343253 1010.172587 275.23072 1015.12192 300.52352 1015.12192 315.06432 1015.12192 324.655787 1015.12192 392.308053 960.098987 447.330987 892.44672 447.330987" p-id="6987"></path><path d="M113.44896 686.933333C94.60736 686.933333 79.315627 671.675733 79.315627 652.8L79.315627 435.2C79.315627 416.324267 94.60736 401.066667 113.44896 401.066667 132.29056 401.066667 147.582293 416.324267 147.582293 435.2L147.582293 652.8C147.582293 671.675733 132.29056 686.933333 113.44896 686.933333" p-id="6988"></path><path d="M902.782293 666.2656C883.940693 666.2656 868.64896 651.008 868.64896 632.132267L868.64896 435.182933C868.64896 416.341333 883.940693 401.0496 902.782293 401.0496 921.623893 401.0496 936.915627 416.341333 936.915627 435.182933L936.915627 632.132267C936.915627 651.008 921.623893 666.2656 902.782293 666.2656" p-id="6989"></path><path d="M241.44896 392.533333C213.152427 392.533333 190.24896 369.595733 190.24896 341.333333L190.24896 72.533333C190.24896 44.270933 213.152427 21.333333 241.44896 21.333333 269.745493 21.333333 292.64896 44.270933 292.64896 72.533333L292.64896 341.333333C292.64896 369.595733 269.745493 392.533333 241.44896 392.533333" p-id="6990"></path><path d="M437.715627 375.466667C409.419093 375.466667 386.515627 352.529067 386.515627 324.266667L386.515627 55.466667C386.515627 27.204267 409.419093 4.266667 437.715627 4.266667 466.01216 4.266667 488.915627 27.204267 488.915627 55.466667L488.915627 324.266667C488.915627 352.529067 466.01216 375.466667 437.715627 375.466667" p-id="6991"></path><path d="M616.915627 375.466667C588.619093 375.466667 565.715627 352.529067 565.715627 324.266667L565.715627 55.466667C565.715627 27.204267 588.619093 4.266667 616.915627 4.266667 645.21216 4.266667 668.115627 27.204267 668.115627 55.466667L668.115627 324.266667C668.115627 352.529067 645.21216 375.466667 616.915627 375.466667" p-id="6992"></path><path d="M803.93216 375.466667C775.635627 375.466667 752.73216 352.529067 752.73216 324.266667L752.73216 55.466667C752.73216 27.204267 775.635627 4.266667 803.93216 4.266667 832.228693 4.266667 855.13216 27.204267 855.13216 55.466667L855.13216 324.266667C855.13216 352.529067 832.228693 375.466667 803.93216 375.466667" p-id="6993"></path></svg>