<?xml version="1.0" standalone="no"?><!DOCTYPE svg PUBLIC "-//W3C//DTD SVG 1.1//EN" "http://www.w3.org/Graphics/SVG/1.1/DTD/svg11.dtd"><svg t="1598247322676" class="icon" viewBox="0 0 1051 1024" version="1.1" xmlns="http://www.w3.org/2000/svg" p-id="2025" xmlns:xlink="http://www.w3.org/1999/xlink" width="205.2734375" height="200"><defs><style type="text/css"></style></defs><path d="M288.380541 26.928432a110.702703 110.702703 0 0 1 125.094054-3.321081l275.815783 178.286703a110.702703 110.702703 0 0 1 50.591136 92.962595v538.790054a166.054054 166.054054 0 0 1-166.054055 166.054054H166.054054a166.054054 166.054054 0 0 1-166.054054-166.054054V292.421189a110.702703 110.702703 0 0 1 45.747892-89.641513z m76.716973 64.567352a27.675676 27.675676 0 0 0-27.952433 2.656865L94.429405 270.003892l-2.546162 2.103351a27.675676 27.675676 0 0 0-8.883892 20.313946v541.225514l0.138379 4.870919A83.027027 83.027027 0 0 0 166.054054 916.67373h407.773405l4.870919-0.138379a83.027027 83.027027 0 0 0 78.156108-82.888648V294.856649l-0.221405-3.487135a27.675676 27.675676 0 0 0-12.426378-19.760433l-275.815784-178.286703zM745.527351 13.837838a41.513514 41.513514 0 0 1 22.970811 6.918919l3.293406 2.435459L1002.136216 211.165405a96.864865 96.864865 0 0 1 35.424865 69.244541l0.19373 5.811892v488.752432A124.540541 124.540541 0 0 1 919.109189 899.459459l-5.867243 0.138379h-75.831351a41.513514 41.513514 0 0 1-3.985298-82.833297l3.985298-0.19373h75.831351a41.513514 41.513514 0 0 0 41.319784-37.528216l0.193729-3.985298V286.249514a13.837838 13.837838 0 0 0-3.321081-8.994595l-1.771243-1.743568L730.720865 96.864865h-52.140973a41.513514 41.513514 0 0 1-41.34746-37.528216L637.094054 55.351351A41.513514 41.513514 0 0 1 674.566919 14.031568L678.607568 13.837838h66.975135zM525.837838 774.918919a27.675676 27.675676 0 1 1 0 55.351351H193.72973a27.675676 27.675676 0 1 1 0-55.351351h332.108108zM359.783784 221.405405a55.351351 55.351351 0 1 1 0 110.702703 55.351351 55.351351 0 0 1 0-110.702703z" p-id="2026"></path></svg>