<?xml version="1.0" standalone="no"?><!DOCTYPE svg PUBLIC "-//W3C//DTD SVG 1.1//EN" "http://www.w3.org/Graphics/SVG/1.1/DTD/svg11.dtd"><svg t="1594794228987" class="icon" viewBox="0 0 1025 1024" version="1.1" xmlns="http://www.w3.org/2000/svg" p-id="8633" xmlns:xlink="http://www.w3.org/1999/xlink" width="200.1953125" height="200"><defs><style type="text/css"></style></defs><path d="M407.9 688.7c-2.4 0-4.8-0.5-7-1.7-2.9-1.5-71.3-37.3-88.2-106.6-25.3-103.2 33.7-168.2 36-170.9 5.9-6.2 15.5-6.5 21.7-0.9 6.2 5.9 6.5 15.4 0.9 21.6-0.2 0.3-12.9 14.4-22.6 38.8-13.1 32.6-15.1 67.5-6.2 103.8 13.6 55.5 71.8 86.4 72.4 86.7 7.4 3.9 10.5 13.2 6.5 20.7-2.5 5.5-8 8.5-13.5 8.5zM181.6 281.3c-46 66.6-71.3 145.7-71.3 228.4 0 75.5 20.8 148 59.6 210.9 7 11.3 21.7 14.7 33 7.9 11.3-7 14.7-21.7 7.9-33-34.1-55.4-52.5-119.1-52.5-185.5 0-73 22.2-142.5 62.6-201.3 7.5-10.9 4.8-25.8-6.1-33.4-10.7-7.8-25.6-5-33.2 6zM282.4 844.7c66.6 46 145.7 71.3 228.4 71.3 75.5 0 148-20.8 210.9-59.6 11.3-7 14.7-21.7 7.9-33-7-11.3-21.7-14.7-33-7.9C641.2 849.7 577.5 868 511 868c-73 0-142.5-22.2-201.3-62.6-10.9-7.5-25.8-4.8-33.4 6.1-7.5 10.7-4.7 25.7 6.1 33.2zM282.4 179.2c-10.9 7.5-13.6 22.5-6.1 33.4 7.5 10.9 22.5 13.6 33.4 6.1C368.4 178 438 156.1 511 156.1c66.5 0 130.3 18.4 185.5 52.5 11.3 7 26 3.4 33-7.9s3.4-26-7.9-33C658.9 128.8 586.4 108 510.9 108c-82.7-0.1-161.9 25-228.5 71.2zM858.4 714.9c36.7-61.6 56.3-132.1 56.3-205.2 0-81.8-24.5-160-69.6-226.2-7.4-11-22.4-13.7-33.4-6.3-11 7.4-13.7 22.4-6.3 33.4 39.7 58.3 61.2 127 61.2 199 0 64.5-17.3 126.5-49.5 180.8-6.9 11.4-3 26.2 8.3 32.9 11.4 6.8 26.1 3 33-8.4z" fill="" p-id="8634"></path><path d="M512.5 211.8C345.4 211.8 210 347.2 210 514.3s135.4 302.5 302.5 302.5S815 681.4 815 514.3 679.6 211.8 512.5 211.8z m0 554.4c-139 0-251.8-112.7-251.8-251.8s112.8-251.7 251.8-251.7 251.8 112.7 251.8 251.8-112.8 251.7-251.8 251.7z" fill="" p-id="8635"></path></svg>