<?xml version="1.0" standalone="no"?><!DOCTYPE svg PUBLIC "-//W3C//DTD SVG 1.1//EN" "http://www.w3.org/Graphics/SVG/1.1/DTD/svg11.dtd"><svg t="1594794126699" class="icon" viewBox="0 0 1024 1024" version="1.1" xmlns="http://www.w3.org/2000/svg" p-id="4187" xmlns:xlink="http://www.w3.org/1999/xlink" width="200" height="200"><defs><style type="text/css"></style></defs><path d="M620.015484 991.968619 296.530581 991.968619C187.656258 991.968619 99.096774 906.183845 99.096774 800.744877L99.096774 191.233652C99.096774 85.761652 187.656258 0.00991 296.530581 0.00991L710.95329 0.00991C819.827613 0.00991 908.387097 85.761652 908.387097 191.233652L908.387097 742.244748C908.387097 769.133006 896.627613 794.534813 876.114581 812.008877L830.596129 850.755716C816.722581 862.581265 795.846194 860.896619 784.020645 846.990039 772.195097 833.083458 773.879742 812.273135 787.786323 800.414555L833.337806 761.667716C839.052387 756.811974 842.322581 749.743071 842.322581 742.244748L842.322581 191.233652C842.322581 122.229265 783.393032 66.074426 710.95329 66.074426L296.530581 66.074426C224.090839 66.074426 165.16129 122.229265 165.16129 191.233652L165.16129 800.744877C165.16129 869.749265 224.090839 925.904103 296.530581 925.904103L620.015484 925.904103C633.789935 925.904103 647.399226 921.345652 658.365935 913.054555L703.554065 878.667974C718.055226 867.602168 738.799484 870.442942 749.832258 884.977135 760.898065 899.478297 758.05729 920.189523 743.556129 931.255329L698.235871 965.741006C675.740903 982.686555 648.026839 991.968619 620.015484 991.968619" p-id="4188"></path><path d="M532.645161 257.096671 256 257.096671C237.766194 257.096671 222.967742 242.331252 222.967742 224.064413 222.967742 205.797574 237.766194 191.032155 256 191.032155L532.645161 191.032155C550.878968 191.032155 565.677419 205.797574 565.677419 224.064413 565.677419 242.331252 550.878968 257.096671 532.645161 257.096671" p-id="4189"></path><path d="M736.001652 433.614452 256.00991 433.614452C237.776103 433.614452 222.977652 418.849032 222.977652 400.582194 222.977652 382.315355 237.776103 367.549935 256.00991 367.549935L736.001652 367.549935C754.235458 367.549935 769.03391 382.315355 769.03391 400.582194 769.03391 418.849032 754.235458 433.614452 736.001652 433.614452" p-id="4190"></path><path d="M732.516748 613.227355 252.525006 613.227355C234.2912 613.227355 219.492748 598.461935 219.492748 580.195097 219.492748 561.928258 234.2912 547.162839 252.525006 547.162839L732.516748 547.162839C750.750555 547.162839 765.549006 561.928258 765.549006 580.195097 765.549006 598.461935 750.750555 613.227355 732.516748 613.227355" p-id="4191"></path></svg>