<svg t="1588228525718" class="icon" viewBox="0 0 1024 1024" version="1.1" xmlns="http://www.w3.org/2000/svg" p-id="3936" width="200" height="200"><path d="M311.3 733.8c9.4 0 17.1-7.7 17.1-17.1v-63c0-9.4-7.7-17.1-17.1-17.1-9.4 0-17.1 7.7-17.1 17.1v63c0.1 9.4 7.8 17.1 17.1 17.1zM745.2 351.9H278.8c-9.4 0-17.1 7.7-17.1 17.1 0 9.4 7.7 17.1 17.1 17.1h466.3c9.4 0 17.1-7.7 17.1-17.1 0-9.4-7.6-17.1-17-17.1z" p-id="3937"></path><path d="M425.3 514.8h378.2v29.3c0 13.8 11.2 24.9 24.9 24.9h22.8c13.8 0 24.9-11.2 24.9-24.9v-29.3h3.3c25.7 0 49.2-11.8 64.5-32.5 15.3-20.6 19.9-46.5 12.5-71l-71.2-237.8c-4.4-14.8-13.3-27.4-25.7-36.6-12.4-9.2-27-14.1-42.4-14.1H206.8c-31.2 0-59.2 20.9-68.1 50.7L67.5 411.3c-7.4 24.6-2.8 50.5 12.5 71.1 15.3 20.6 38.9 32.4 64.6 32.4h3.2v313.8h-46.2c-19.9 0-36.6 15.6-37 35.5-0.5 20.4 16 37.2 36.3 37.2h449.8c20.1 0 36.4-16.3 36.4-36.4 0-20.1-16.3-36.4-36.4-36.4H425.3V514.8zM144.4 442c-2.5 0-4.6-1-6.1-3.1-2.3-3.3-1.5-6-1.3-6.9l70.9-236.7h608L886.8 432c0.7 2.5 0.3 4.7-1.2 6.7l-0.1 0.2c-1 1.4-2.9 3-6.1 3h-735z m208.2 386.4H220.4V514.8h132.2v313.6z" p-id="3938"></path><path d="M921.5 736h-111V625c0-20.7-16.8-37.5-37.5-37.5s-37.5 16.8-37.5 37.5v111h-111c-20.7 0-37.5 16.8-37.5 37.5s16.8 37.5 37.5 37.5h111v111c0 20.7 16.8 37.5 37.5 37.5s37.5-16.8 37.5-37.5V811h111c20.7 0 37.5-16.8 37.5-37.5S942.2 736 921.5 736z" p-id="3939"></path></svg>