<?xml version="1.0" standalone="no"?><!DOCTYPE svg PUBLIC "-//W3C//DTD SVG 1.1//EN" "http://www.w3.org/Graphics/SVG/1.1/DTD/svg11.dtd"><svg t="1603864961687" class="icon" viewBox="0 0 1024 1024" version="1.1" xmlns="http://www.w3.org/2000/svg" p-id="5123" xmlns:xlink="http://www.w3.org/1999/xlink" width="200" height="200"><defs><style type="text/css"></style></defs><path d="M1010.31396 455.23111L570.917734 950.720906l-181.910161 73.058755 50.629513-189.400217 439.41669-495.551191c18.725143-21.037647 52.921552-23.370616 74.266169-4.461291l52.512259 46.618444c10.45743 9.229551 16.801467 22.265525 17.599588 36.201943 0.879979 13.915953-3.847352 27.62726-13.117832 38.043761zM375.828347 777.794722l-13.363408 15.082437-5.177554 19.46187-50.690906 189.400218-5.91428 22.040414H128.124378a127.903983 127.903983 0 0 1-127.903983-127.924447V128.328994a127.903983 127.903983 0 0 1 127.903983-127.924447h596.953468a127.924447 127.924447 0 0 1 127.924447 127.924447v125.038934c-13.977347 7.490057-26.951927 16.781003-37.675397 28.77328l-439.498549 495.653514zM317.360878 143.697937c-61.680417 0-111.675525 54.210824-111.675525 121.089259 0 66.85797 49.995109 121.068794 111.675525 121.068793s111.675525-54.210824 111.675526-121.068793c0-66.878434-49.995109-121.089259-111.675526-121.089259z m-22.265525 270.030888v45.697535c0 6.016603 4.850119 10.907652 10.825793 10.907652h22.879464a10.866722 10.866722 0 0 0 10.825794-10.907652v-45.697535a10.866722 10.866722 0 0 0-10.825794-10.907651h-22.879464a10.866722 10.866722 0 0 0-10.825793 10.907651z m196.112619 85.951477c-0.57301-49.585816-43.098526-92.213655-104.165004-110.918334v98.864662a2.476221 2.476221 0 0 1-2.476221 2.496686h-128.968144a2.496686 2.496686 0 0 1-2.496686-2.496686v-100.440439c-64.095244 17.824699-109.403951 61.47577-109.40395 112.494111 0 86.544951-0.26604 72.649462 173.765234 72.649462 174.89079 0 174.808931 16.596821 173.744771-72.649462z m143.538965 507.625326l218.255356-246.128192v134.677778a127.903983 127.903983 0 0 1-127.924447 127.924447h-107.234699l3.540382-1.432524 13.363408-15.041509z" fill="#bfcbd9" p-id="5124"></path></svg>