<?xml version="1.0" standalone="no"?><!DOCTYPE svg PUBLIC "-//W3C//DTD SVG 1.1//EN" "http://www.w3.org/Graphics/SVG/1.1/DTD/svg11.dtd"><svg t="1594868003513" class="icon" viewBox="0 0 1024 1024" version="1.1" xmlns="http://www.w3.org/2000/svg" p-id="9368" xmlns:xlink="http://www.w3.org/1999/xlink" width="200" height="200"><defs><style type="text/css"></style></defs><path d="M511.712 187.008c-159.328 0-304.512 70.176-415.712 170.496l65.152 75.136c93.888-84.384 216.256-135.84 350.56-135.84 134.496 0 257.088 51.648 351.072 136.256L928 358.016C816.704 257.376 671.328 187.008 511.712 187.008zM232 514.368l68.928 79.52c56.768-50.048 130.304-80.416 210.784-80.416 80.64 0 154.24 30.464 211.072 80.672l69.024-79.392c-75.136-67.2-172.896-111.072-280.096-111.072C404.704 403.68 307.072 447.424 232 514.368zM369.888 673.408l141.824 163.584 142.016-163.424c-38.464-33.216-87.936-56.224-142.016-56.224C457.728 617.344 408.288 640.32 369.888 673.408z" p-id="9369"></path></svg>